<?xml version="1.0" encoding="UTF-8" standalone="no"?>
<svg
   xmlns:dc="http://purl.org/dc/elements/1.1/"
   xmlns:cc="http://creativecommons.org/ns#"
   xmlns:rdf="http://www.w3.org/1999/02/22-rdf-syntax-ns#"
   xmlns:svg="http://www.w3.org/2000/svg"
   xmlns="http://www.w3.org/2000/svg"
   xmlns:sodipodi="http://sodipodi.sourceforge.net/DTD/sodipodi-0.dtd"
   xmlns:inkscape="http://www.inkscape.org/namespaces/inkscape"
   width="132.29167mm"
   height="132.29167mm"
   viewBox="0 0 132.29167 132.29167"
   version="1.1"
   id="svg22"
   inkscape:version="1.0.2-2 (e86c870879, 2021-01-15)"
   sodipodi:docname="logTACsvg3.svg">
  <defs
     id="defs16">
    <inkscape:path-effect
       effect="bspline"
       id="path-effect1011"
       is_visible="true"
       lpeversion="1"
       weight="33.333333"
       steps="2"
       helper_size="0"
       apply_no_weight="true"
       apply_with_weight="true"
       only_selected="false" />
    <inkscape:path-effect
       effect="bspline"
       id="path-effect1007"
       is_visible="true"
       lpeversion="1"
       weight="33.333333"
       steps="2"
       helper_size="0"
       apply_no_weight="true"
       apply_with_weight="true"
       only_selected="false" />
    <inkscape:path-effect
       effect="bspline"
       id="path-effect1003"
       is_visible="true"
       lpeversion="1"
       weight="33.333333"
       steps="2"
       helper_size="0"
       apply_no_weight="true"
       apply_with_weight="true"
       only_selected="false" />
    <inkscape:path-effect
       effect="bspline"
       id="path-effect999"
       is_visible="true"
       lpeversion="1"
       weight="33.333333"
       steps="2"
       helper_size="0"
       apply_no_weight="true"
       apply_with_weight="true"
       only_selected="false" />
    <inkscape:path-effect
       effect="bspline"
       id="path-effect995"
       is_visible="true"
       lpeversion="1"
       weight="33.333333"
       steps="2"
       helper_size="0"
       apply_no_weight="true"
       apply_with_weight="true"
       only_selected="false" />
    <inkscape:path-effect
       effect="bspline"
       id="path-effect991"
       is_visible="true"
       lpeversion="1"
       weight="33.333333"
       steps="2"
       helper_size="0"
       apply_no_weight="true"
       apply_with_weight="true"
       only_selected="false" />
    <inkscape:path-effect
       effect="bspline"
       id="path-effect987"
       is_visible="true"
       lpeversion="1"
       weight="33.333333"
       steps="2"
       helper_size="0"
       apply_no_weight="true"
       apply_with_weight="true"
       only_selected="false" />
    <inkscape:path-effect
       effect="bspline"
       id="path-effect983"
       is_visible="true"
       lpeversion="1"
       weight="33.333333"
       steps="2"
       helper_size="0"
       apply_no_weight="true"
       apply_with_weight="true"
       only_selected="false" />
    <inkscape:path-effect
       effect="bspline"
       id="path-effect979"
       is_visible="true"
       lpeversion="1"
       weight="33.333333"
       steps="2"
       helper_size="0"
       apply_no_weight="true"
       apply_with_weight="true"
       only_selected="false" />
    <inkscape:path-effect
       effect="bspline"
       id="path-effect975"
       is_visible="true"
       lpeversion="1"
       weight="33.333333"
       steps="2"
       helper_size="0"
       apply_no_weight="true"
       apply_with_weight="true"
       only_selected="false" />
    <inkscape:path-effect
       effect="bspline"
       id="path-effect971"
       is_visible="true"
       lpeversion="1"
       weight="33.333333"
       steps="2"
       helper_size="0"
       apply_no_weight="true"
       apply_with_weight="true"
       only_selected="false" />
    <inkscape:path-effect
       effect="bspline"
       id="path-effect967"
       is_visible="true"
       lpeversion="1"
       weight="33.333333"
       steps="2"
       helper_size="0"
       apply_no_weight="true"
       apply_with_weight="true"
       only_selected="false" />
    <inkscape:path-effect
       effect="bspline"
       id="path-effect963"
       is_visible="true"
       lpeversion="1"
       weight="33.333333"
       steps="2"
       helper_size="0"
       apply_no_weight="true"
       apply_with_weight="true"
       only_selected="false" />
    <inkscape:path-effect
       effect="bspline"
       id="path-effect959"
       is_visible="true"
       lpeversion="1"
       weight="33.333333"
       steps="2"
       helper_size="0"
       apply_no_weight="true"
       apply_with_weight="true"
       only_selected="false" />
    <inkscape:path-effect
       effect="bspline"
       id="path-effect955"
       is_visible="true"
       lpeversion="1"
       weight="33.333333"
       steps="2"
       helper_size="0"
       apply_no_weight="true"
       apply_with_weight="true"
       only_selected="false" />
    <inkscape:path-effect
       effect="bspline"
       id="path-effect951"
       is_visible="true"
       lpeversion="1"
       weight="33.333333"
       steps="2"
       helper_size="0"
       apply_no_weight="true"
       apply_with_weight="true"
       only_selected="false" />
    <inkscape:path-effect
       effect="bspline"
       id="path-effect947"
       is_visible="true"
       lpeversion="1"
       weight="33.333333"
       steps="2"
       helper_size="0"
       apply_no_weight="true"
       apply_with_weight="true"
       only_selected="false" />
    <inkscape:path-effect
       effect="bspline"
       id="path-effect943"
       is_visible="true"
       lpeversion="1"
       weight="33.333333"
       steps="2"
       helper_size="0"
       apply_no_weight="true"
       apply_with_weight="true"
       only_selected="false" />
    <inkscape:path-effect
       effect="bspline"
       id="path-effect939"
       is_visible="true"
       lpeversion="1"
       weight="33.333333"
       steps="2"
       helper_size="0"
       apply_no_weight="true"
       apply_with_weight="true"
       only_selected="false" />
    <inkscape:path-effect
       effect="bspline"
       id="path-effect935"
       is_visible="true"
       lpeversion="1"
       weight="33.333333"
       steps="2"
       helper_size="0"
       apply_no_weight="true"
       apply_with_weight="true"
       only_selected="false" />
    <inkscape:path-effect
       effect="bspline"
       id="path-effect931"
       is_visible="true"
       lpeversion="1"
       weight="33.333333"
       steps="2"
       helper_size="0"
       apply_no_weight="true"
       apply_with_weight="true"
       only_selected="false" />
    <inkscape:path-effect
       effect="bspline"
       id="path-effect927"
       is_visible="true"
       lpeversion="1"
       weight="33.333333"
       steps="2"
       helper_size="0"
       apply_no_weight="true"
       apply_with_weight="true"
       only_selected="false" />
    <inkscape:path-effect
       effect="bspline"
       id="path-effect923"
       is_visible="true"
       lpeversion="1"
       weight="33.333333"
       steps="2"
       helper_size="0"
       apply_no_weight="true"
       apply_with_weight="true"
       only_selected="false" />
  </defs>
  <sodipodi:namedview
     id="base"
     pagecolor="#ffffff"
     bordercolor="#666666"
     borderopacity="1.0"
     inkscape:pageopacity="0.0"
     inkscape:pageshadow="2"
     inkscape:zoom="0.7"
     inkscape:cx="-366.9051"
     inkscape:cy="214.15955"
     inkscape:document-units="mm"
     inkscape:current-layer="layer1"
     inkscape:document-rotation="0"
     showgrid="false"
     fit-margin-top="0"
     fit-margin-left="0"
     fit-margin-right="0"
     fit-margin-bottom="0"
     inkscape:window-width="1366"
     inkscape:window-height="697"
     inkscape:window-x="-8"
     inkscape:window-y="-8"
     inkscape:window-maximized="1" />
  <metadata
     id="metadata19">
    <rdf:RDF>
      <cc:Work
         rdf:about="">
        <dc:format>image/svg+xml</dc:format>
        <dc:type
           rdf:resource="http://purl.org/dc/dcmitype/StillImage" />
        <dc:title></dc:title>
      </cc:Work>
    </rdf:RDF>
  </metadata>
  <g
     inkscape:label="Layer 1"
     inkscape:groupmode="layer"
     id="layer1"
     transform="translate(-23.056545,-64.633926)">
    <path
       style="fill:#000080;stroke:none;stroke-width:0.264583px;stroke-linecap:butt;stroke-linejoin:miter;stroke-opacity:1"
       d="m 91.252501,129.38511 0.836668,-3.72691 0.374828,-4.32153 -0.176636,-5.66629 0.19887,-3.28386 -0.526617,-3.79375 -0.797679,-4.56429 -0.814605,-3.61634 -1.058357,-4.475471 -0.793749,-3.175 -1.545024,-4.018726 -1.13111,-3.124912 -1.428795,-4.001553 v 0 l -1.235564,-2.335975 4.938297,3.440647 3.146975,2.455792 4.440362,5.67401 1.988235,2.694973 0.859896,1.751333 0.165007,2.767898 1.081634,2.608804 0.543313,1.45939 0.40792,1.82269 0.99644,3.43644 -3.138181,-6.54741 -0.684903,-1.456991 -0.809424,-2.16118 -1.698636,-3.186412 -2.205876,-3.175 0.01732,-0.264587 -2.034386,-2.449958 -0.67813,-0.46045 -2.440879,-2.270214 2.336612,5.577414 1.961679,7.15433 0.685623,4.818238 0.514625,4.1671 0.313124,6.94544 -0.172591,6.74675 -0.658863,5.95352 -0.280484,1.32297 z"
       id="path879"
       sodipodi:nodetypes="ccccccccccccccccccccccccccccccccccccccccccc" />
    <path
       style="fill:#000080;stroke:none;stroke-width:0.264583px;stroke-linecap:butt;stroke-linejoin:miter;stroke-opacity:1"
       d="m 98.654487,97.393994 2.254473,2.070462 1.61708,2.825344 1.57732,2.99548 0.78503,1.20951 1.65364,1.6064 -1.03943,-2.78758 -1.00394,-1.73662 -1.03759,-2.14021 2.07892,0.87205 0.50402,0.59531 1.596,1.59757 1.16988,1.3316 2.2882,1.10869 -1.53229,-1.86465 v 0 l -1.28144,-0.98259 -1.42151,-1.78593 -1.47523,-1.65378 -2.10664,-1.408173 -2.44906,-2.692871 -1.906571,-1.918229 -1.256799,-1.089874 z"
       id="path881"
       sodipodi:nodetypes="cccccccccccccccccccccccc" />
    <path
       style="fill:#000080;stroke:none;stroke-width:0.264583px;stroke-linecap:butt;stroke-linejoin:miter;stroke-opacity:1"
       d="m 94.248754,131.72352 -1.408356,-0.66028 -1.653437,-1.03896 -1.464865,-1.1344 -0.992196,-1.24739 -1.71075,-2.05078 -1.852086,-2.1167 -1.877222,-1.78599 -0.636317,-0.19801 -1.918232,-0.18672 -1.076815,0.40404 -0.94494,0.75595 -1.322917,1.08668 -0.07087,0.8977 0.259858,0.61421 0.330729,0.37798 0.283483,0.47246 0.472469,0.30711 -1.086681,0.35435 -0.566965,0.0236 -1.086681,-0.56697 h -0.566965 l -0.09449,0.0945 -0.590587,0.23623 -0.637836,0.47248 -0.486913,0.51606 v 1e-5 0 l 0.79402,0.0981 0.76971,0.0654 1.309158,0.35985 1.072089,1.15758 1.644616,0.82679 0.968563,1.11031 1.228423,1.93713 1.41741,2.22061 1.27567,2.43322 1.393788,2.43322 0.779573,1.18118 1.748142,3.09468 2.527716,3.56715 3.23642,3.37816 5.008184,4.15774 2.929316,1.67727 3.56715,1.63002 5.34795,2.06866 6.72366,1.14414 5.2208,0.47247 2.19699,0.37797 2.22061,0.37798 0.83586,0.39702 -1.16659,0.50067 -2.80216,-0.008 -4.94636,0.38611 -4.29947,-0.25985 h -2.74033 l -4.41801,-0.85292 -2.38556,-0.49362 -4.91369,-1.91351 -4.323519,-2.75882 -3.987649,-3.39937 -5.484987,-7.23721 -1.322893,-2.19612 -2.198833,-4.23156 -2.738483,-5.0761 -0.708705,-1.44103 -1.653646,-3.00019 -1.417409,-1.03943 -1.228424,-0.85045 -1.252045,-0.49609 -0.755952,-0.14175 -0.779097,-0.24049 0.09401,0.47673 -2.69308,6.66183 -1.511906,3.87426 -0.992187,2.52771 -0.566962,2.52772 -0.944941,3.16555 -0.212612,1.18117 -0.188989,0.47247 -0.430955,0.64287 -0.844715,-0.8791 -2.126115,-1.65365 -3.472656,-1.63002 -2.055246,-0.51972 -2.244233,0.11812 -1.700892,0.33073 -0.826823,0.47247 -0.519719,0.25986 -0.307104,0.0945 -0.165365,0.0945 -0.165364,0.11811 -0.73233,-0.54334 -1.078263,-0.72718 -0.882489,-0.59573 -0.850446,-0.51972 v 0 l -1.464658,-0.0709 -1.771763,0.0709 -1.913505,0.11812 -1.677269,0.77957 -1.228423,0.42523 -1.299293,0.37797 -0.614211,0.25986 0.292513,-0.927 0.652427,-1.67158 1.370164,-2.85845 1.417411,-2.33873 2.007998,-2.92931 1.417411,-1.22843 0.637835,-0.35435 -1.252047,2.03162 -1.559151,2.48047 -1.181176,2.12612 -0.850446,1.53553 -0.519717,1.15755 -0.288626,0.91192 1.984375,-1.08596 2.225753,-0.32205 2.007581,0.14817 2.717122,0.51328 0.897693,0.54334 1.724516,0.96857 1.666714,-0.30526 1.52246,-0.45069 1.525661,-0.37655 2.463933,0.34703 2.88485,1.04533 2.191842,1.493 1.020953,0.63311 0.283483,0.28349 0.188989,-0.92132 0.708705,-2.57497 0.755952,-2.36235 0.897694,-2.38597 1.445268,-3.66438 1.885645,-4.67472 1.294755,-2.6844 v 0 l -0.32661,-0.21899 -0.434311,-0.26726 -0.576773,-0.17299 0.37632,-0.31144 1.035669,-0.28397 0.501131,-0.0835 0.818513,-0.70158 1.152599,-1.06908 0.785106,-0.31738 1.069078,-0.13363 1.035947,0.10687 -0.424363,-0.92604 -0.143864,-0.80115 0.167044,-0.50114 0.451017,-1.00226 0.718288,-0.96885 0.835216,-0.73499 1.081156,-0.40017 2.518574,-0.27258 1.528506,0.20503 1.820772,0.91874 1.135896,0.96885 1.403165,1.40316 1.336347,1.62033 1.052375,1.11919 0.611261,0.62831 2.061433,1.97756 1.152601,0.7517 0.634765,0.3675 1.363919,-2.71055 0.379862,-0.43641 v 0 l 1.852086,-2.92602 5.291671,-6.34987 2.77813,-3.175 3.30729,-4.33322 3.22722,-4.40096 2.74291,-5.630993 1.98826,-5.103876 1.58749,-5.027084 1.07923,-5.401909 0.14501,-3.307293 -0.0541,-7.408336 -0.91646,-4.124578 -0.20045,-2.505652 -0.16705,-0.567948 1.03567,0.734991 2.60588,3.307461 1.10249,1.971113 1.06907,2.906556 0.80619,3.79021 0.39653,1.889267 0.20045,-0.634765 3.17535,1.898453 1.36823,1.576051 1.46998,2.706104 0.90687,3.170275 0.40309,1.080382 0.36048,3.50016 -0.10401,0.989626 -0.0965,0.714216 0.60663,0.48454 1.47608,3.285307 0.52916,2.116782 0.42833,1.59692 -0.40742,3.31974 -0.0953,0.8968 0.62448,1.48465 0.42627,4.23312 0.10287,1.58764 -0.81288,3.04257 -0.7955,1.83005 0.40425,1.05874 0.92071,2.191 0.0334,2.67269 -0.56795,1.97112 -1.33634,2.7061 -1.23613,1.60362 -1.43657,1.20271 -1.90429,1.06908 -1.16931,0.73499 -2.6727,0.83522 -3.94222,0.86862 -2.195,0.19917 -2.24836,0.0347 -1.36975,-0.20045 1.36975,-0.83522 2.60588,-0.60135 3.14042,-0.86863 2.80633,-1.30294 2.82385,-1.19856 2.78881,-2.57662 1.5368,-1.13589 0.32549,-1.81388 0.24369,-2.31475 -0.26454,-1.00499 -1.90826,2.09342 -3.90882,3.10701 -1.06213,0.29625 -1.27647,0.80624 -2.03793,1.13589 -2.73952,1.00227 -2.53906,0.76839 -0.90997,-0.013 -2.0247,-0.1949 1.47349,-0.6041 2.76255,-1.33663 3.20881,-1.79363 3.42135,-2.58654 3.59447,-3.12634 1.97111,-1.83748 1.44587,-2.16419 0.53728,-1.20624 0.57264,-1.85208 0.40168,-1.49863 0.18295,-2.23239 -0.10023,-1.06908 -0.96885,1.63703 -1.46998,2.27179 -2.07134,2.47224 -1.97111,1.80407 -2.57247,1.87089 -4.04245,2.23838 -2.50565,1.03567 -2.03793,0.3675 1.80406,-1.70385 2.90656,-1.97111 3.8472,-3.11859 2.59285,-2.76551 1.57804,-2.23421 0.46772,-0.7684 1.06908,-2.43884 0.56794,-1.40316 0.50114,-2.97337 0.10022,-3.14042 0.10236,-1.21885 -0.48126,-1.048976 -1.05767,2.969406 -1.87089,3.4411 -1.57021,2.3052 -1.57021,2.00452 -1.03567,1.20271 -1.23612,1.20271 0.0699,-1.0773 1.19962,-2.93174 1.8601,-2.69907 1.97547,-3.75902 1.22092,-4.630207 0.72309,-2.778125 -0.59851,-4.145548 -0.25414,-1.609139 -1.14432,-2.265572 -1.41059,-2.100758 -0.60136,-0.467722 -0.30067,-0.634765 0.0334,2.104748 0.0668,3.107008 -0.26727,1.837478 -0.89417,2.035555 -0.1415,1.873261 -0.60135,1.236123 -0.70159,1.570209 -0.46772,0.734989 0.53454,-2.739512 0.34017,-2.785314 0.12755,-3.695971 -0.14846,-3.602122 -0.66342,-3.701013 -0.38509,-1.48082 -0.6405,-1.606148 -0.39622,2.627231 -0.10492,4.288368 -0.69936,3.201726 -0.81463,2.756077 -1.85422,5.842875 -1.31776,2.910438 -1.46123,2.99549 -1.20271,2.10475 -2.17156,3.64154 -2.57247,3.57473 -2.20497,2.90656 -2.50566,2.90656 -2.60588,2.90655 -2.13815,2.77292 -1.87089,2.17157 -2.138157,4.17609 -1.00226,2.27178 -1.138039,2.4376 -0.09808,2.5403 -0.200453,1.70384 -0.267269,1.83748 -0.23386,1.26953 -0.03341,0.66818 -0.639884,-1.9296 -0.0028,-2.08598 -0.01728,-1.52877 -0.104318,-2.70275 -0.01683,-1.19019 0.478673,-1.91672 -3.061792,-1.69925"
       id="path883"
       sodipodi:nodetypes="ccccccccccccccccccccccccccccccccccccccccccccccccccccccccccccccccccccccccccccccccccccccccccccccccccccccccccccccccccccccccccccccccccccccccccccccccccccccccccccccccccccccccccccccccccccccccccccccccccccccccccccccccccccccccccccccccccccccccccccccccccccccccccccccccccccccccccccccccccccccccccccccccccccccccccccccccccccccccccccccccccccccccccccccccccc" />
    <path
       style="fill:#000080;stroke:none;stroke-width:0.264583px;stroke-linecap:butt;stroke-linejoin:miter;stroke-opacity:1"
       d="m 80.04857,124.02104 v 0 l 0.120131,-0.38737 0.283975,-0.0668 0.301019,0.35045 -0.03375,0.40124 -0.451016,0.0668 -0.220358,-0.36433 -0.531337,0.0469 -0.250565,0.33408 0.07774,0.41313 0.840997,0.28845 0.718285,-0.0835 0.250566,-0.43431 0.129828,-0.42123 -0.01288,-0.68126 -0.35079,-0.50113 -0.367495,-0.11693 h -0.618062 l -0.400904,0.26727 -0.283975,0.30068 -0.05011,0.18375 -0.06682,0.31738 0.03341,0.30068 0.11693,0.23386 0.233845,-0.40092 z"
       id="path885"
       sodipodi:nodetypes="ccccccccccccccccccccccccccc" />
    <path
       style="fill:#ffdd55;stroke:none;stroke-width:0.264583px;stroke-linecap:butt;stroke-linejoin:miter;stroke-opacity:1"
       d="m 41.057661,142.44977 1.700893,-0.21261 1.297235,0.14844 1.041493,0.0405 1.242178,0.3214 2.100279,0.41875 1.56605,0.39619 0.633153,0.26729 1.917477,-0.48498 1.971112,-0.36749 h 2.271792 l 1.804069,0.43431 1.692839,0.56938 1.950206,1.1239 0.744689,0.45408 0.556752,0.45852 0.7684,-2.70611 1.403165,-3.80859 2.00452,-4.71062 1.135896,-2.43884 1.263626,-2.86944 0.315907,-0.71564 2e-6,0 -1.4459,-0.82487 -0.611836,0.0604 0.912514,0.54097 0.434313,0.23386 v 0 l -0.204494,0.93809 -2.787573,6.09487 -2.149739,5.14992 -0.543343,1.55915 -0.590588,2.008 -0.141739,0.37798 -1.086684,-0.68508 -1.724514,-0.77958 -2.267858,-0.77957 -1.228423,-0.25986 h -1.582775 l -1.535528,0.11811 -3.000187,0.66146 v 0 l -1.984374,-0.47247 -2.244234,-0.63783 -1.724516,-0.28349 -1.299293,-0.0236 -1.653646,0.0472 -1.133929,0.37798 -0.496093,0.8032 z"
       id="path887"
       sodipodi:nodetypes="cccccccccccccccccccccccccccccccccccccccccccccccccc" />
    <path
       style="fill:#ffd42a;stroke:none;stroke-width:0.264583px;stroke-linecap:butt;stroke-linejoin:miter;stroke-opacity:1"
       d="m 44.839011,135.12626 -1.77066,3.00679 -1.570209,2.73951 -0.200452,0.43431 1.904295,-0.23386 1.169305,-0.0334 1.870886,0.16704 1.486347,0.39321 2.381249,0.79375 0.661462,-1e-4 h -10e-7 l 1.25744,-0.12856 0.982486,-0.12227 0.992187,-0.33073 1.168264,-0.11734 0.893134,-0.0637 1.104151,0.11017 1.67213,0.38784 1.351679,0.53348 0.897695,0.37797 1.393788,0.68508 0.472469,0.37798 0.307107,-1.5119 0.496094,-1.46466 0.916633,-1.90877 1.209482,-3.31203 1.157134,-2.89006 1.276088,-3.44104 0.259857,-0.73233 -0.874069,-0.85044 -0.73233,-0.51972 L 65.909596,127 l -1.393788,-0.16537 -1.299294,0.0236 -1.488282,0.47247 -0.566962,0.16537 -1.299295,0.68508 -1.25442,1.18621 -0.788664,-0.45962 -1.098843,-0.13601 -2.055243,-0.0236 -2.008,0.11811 -1.889882,0.42523 -1.204798,1.22842 -1.393787,1.41741 -0.944941,1.06306 -0.921317,1.01581 -1.157552,0.8032 -0.07087,0.23623 -0.02363,0.23624 0.385394,1.01283 v 0 l 1.050308,-0.91858 1.268153,-1.13507 1.145393,-1.58495 2.220118,-2.43727 0.804183,-0.21667 1.499253,0.0356 1.184862,-0.0896 1.55784,0.0579 1.488977,0.0191 1.329953,0.46975 0.947486,-0.97797 1.529795,-0.8879 1.205495,-0.351 1.07403,-0.28062 1.123653,0.0835 1.336263,0.16202 0.936341,0.4276 0.516852,0.38321 -0.149151,0.3503 -2.709293,7.2283 -2.18661,5.16156 -0.674301,0.68456 v 0 l -2.296629,-0.87876 -1.309079,-0.46268 -1.731926,-0.25007 -2.652262,0.13195 -1.973404,0.4102 -1.200491,0.14255 -1.338196,-0.26637 -2.028756,-0.67125 -1.805172,-0.38489 -1.67035,-0.0973 -1.227315,0.37959 -0.52917,-1e-5 1.956445,-3.17069 0.850447,-1.44103 0.456258,0.37491 -0.47948,-0.97788 0.03341,-0.31739 0.03341,-0.13363 z"
       id="path889"
       sodipodi:nodetypes="cccccccccccccccccccccccccccccccccccccccccccccccccccccccccccccccccccccccccccccccccccccccccccccc" />
    <path
       style="fill:#ffdd55;stroke:none;stroke-width:0.264583px;stroke-linecap:butt;stroke-linejoin:miter;stroke-opacity:1"
       d="m 50.771231,141.58163 6.883278,-11.5465 1.329952,0.46975 -4.813332,8.9782 -1.080172,1.58993 z"
       id="path891" />
    <path
       style="fill:#ffd42a;stroke:none;stroke-width:0.264583px;stroke-linecap:butt;stroke-linejoin:miter;stroke-opacity:1"
       d="m 61.090399,141.22135 c -1.147083,-0.38299 -2.976563,-0.85045 -2.976563,-0.85045 l -2.447814,-0.30335 -0.670488,0.0907 -0.543343,0.11812 0.25986,-0.51972 0.637834,-0.11812 1.157552,0.0473 2.462041,0.32021 1.837438,0.31763 0.543341,0.35435 z"
       id="path893" />
    <path
       style="fill:#ffdd55;stroke:none;stroke-width:0.264583px;stroke-linecap:butt;stroke-linejoin:miter;stroke-opacity:1"
       d="m 55.326263,138.88262 1.488281,-0.0236 2.078868,0.3071 0.968563,0.28348 1.015812,0.14174 0.614212,0.18899 0.448847,0.0236 0.165365,-0.70871 -1.535531,-0.63783 -1.582774,-0.23624 -2.315104,-0.33072 -0.87407,-0.0473 -0.212611,0.0473 z"
       id="path895" />
    <path
       style="fill:#ffdd55;stroke:none;stroke-width:0.264583px;stroke-linecap:butt;stroke-linejoin:miter;stroke-opacity:1"
       d="m 56.426512,137.19109 1.143984,-0.19835 1.913504,0.0945 2.078868,0.28348 0.826823,0.44884 0.283482,0.23624 0.59059,-0.99219 -1.370166,-0.51971 -1.133927,-0.28349 -0.637834,-0.16536 -1.771764,-0.16536 -0.826823,-0.0472 -0.779576,0.16536 -0.401601,0.63784 z"
       id="path897" />
    <path
       style="fill:#ffdd55;stroke:none;stroke-width:0.264583px;stroke-linecap:butt;stroke-linejoin:miter;stroke-opacity:1"
       d="m 57.074402,135.15011 1.086681,-0.25986 0.968565,0.14174 1.582775,0.33073 1.204799,0.23624 1.228423,0.37797 0.519716,0.23624 0.283482,-0.66146 0.165365,-0.37798 -1.039434,-0.28348 -1.181177,-0.33073 -1.039434,-0.18899 -1.370163,-0.35435 -0.779577,-0.0236 -0.755951,-0.0709 -0.448847,0.4016 z"
       id="path899" />
    <path
       style="fill:#ffdd55;stroke:none;stroke-width:0.264583px;stroke-linecap:butt;stroke-linejoin:miter;stroke-opacity:1"
       d="m 58.373694,133.26023 1.067676,-0.0461 1.601782,0.23513 1.677268,0.35435 1.204801,0.25986 0.685081,0.14174 0.54334,-1.08668 -1.653646,-0.37798 -1.535528,-0.33073 -1.252045,-0.16536 -1.086681,-0.0709 -0.837634,0.11287 -0.508907,0.33597 z"
       id="path901" />
    <path
       style="fill:#ffdd55;stroke:none;stroke-width:0.264583px;stroke-linecap:butt;stroke-linejoin:miter;stroke-opacity:1"
       d="m 60.185582,130.48725 0.928441,-0.53431 1.181174,-0.37798 1.204799,-0.0472 1.582777,0.18899 0.685081,0.51972 0.377975,0.4016 -0.236233,0.68508 -0.165364,0.37797 -0.543343,-0.82682 -0.519716,-0.28348 -0.566965,-0.18899 -0.779576,-0.0236 -0.826823,0.11811 -0.826823,0.16537 -1.252464,0.61895 -0.708287,0.25512 -0.519718,0.0472 z"
       id="path903" />
    <path
       style="fill:#ffd42a;stroke:none;stroke-width:0.264583px;stroke-linecap:butt;stroke-linejoin:miter;stroke-opacity:1"
       d="m 43.585377,139.59133 c 0.828714,-0.0967 1.370163,-0.16537 1.370163,-0.16537 l 1.842634,0.4016 1.889881,0.54334 1.346541,0.37798 0.614209,-0.47247 0.02363,-0.44885 -2.22061,-0.61421 -2.456845,-0.61421 -1.2048,0.0472 -0.708705,0.0236 -0.682875,0.34965 z"
       id="path907" />
    <path
       style="fill:#ffd42a;stroke:none;stroke-width:0.264583px;stroke-linecap:butt;stroke-linejoin:miter;stroke-opacity:1"
       d="m 45.286269,137.72507 1.960752,-0.16536 1.74814,0.54334 1.771762,0.56696 0.300464,0.59917 0.857088,-1.16613 -1.27567,-0.77958 -1.370162,-0.37798 -1.771763,-0.35435 -1.535529,0.0236 -0.463477,0.5978 z"
       id="path909" />
    <path
       style="fill:#ffdd55;stroke:none;stroke-width:0.264583px;stroke-linecap:butt;stroke-linejoin:miter;stroke-opacity:1"
       d="m 47.365138,135.59896 3.000188,0.3071 2.055243,0.99219 0.685083,-0.77958 -1.322917,-0.77957 -1.488281,-0.37798 -2.433222,-0.23624 z"
       id="path911" />
    <path
       style="fill:#ffdd55;stroke:none;stroke-width:0.264583px;stroke-linecap:butt;stroke-linejoin:miter;stroke-opacity:1"
       d="m 49.160526,133.70907 1.015392,0.035 1.654064,0.17765 0.850448,0.54334 0.566962,0.44884 0.4488,-0.17017 0.236283,0.5009 0.498827,-0.7906 0.257125,-0.50869 -1.039434,-0.37798 -0.661459,-0.16536 -1.290259,-0.79805 -0.764987,0.0421 -0.614466,-0.18881 -0.755697,0.35417 z"
       id="path913" />
    <path
       style="fill:#ffdd55;stroke:none;stroke-width:0.264583px;stroke-linecap:butt;stroke-linejoin:miter;stroke-opacity:1"
       d="m 50.837795,131.70107 2.173364,0.0709 1.795386,0.61421 0.685083,0.35435 0.54334,-0.87407 0.14174,-0.44885 -1.41741,-0.35435 -1.110305,-0.37797 -1.228424,-0.0472 -0.779576,0.18899 -0.637834,0.7087 z"
       id="path915" />
    <path
       style="fill:#000080;stroke:none;stroke-width:0.264583px;stroke-linecap:butt;stroke-linejoin:miter;stroke-opacity:1"
       d="m 39.122264,176.05273 c -0.05927,-0.12693 -0.17797,-0.3811 -0.237394,-1.06503 -0.05942,-0.68394 -0.05942,-1.79754 -0.08169,-2.90003 -0.02227,-1.10249 -0.06681,-2.19382 0.04202,-2.96845 0.108829,-0.77463 0.251228,-1.02316 0.49623,-1.43521 0.245001,-0.41205 0.53266,-0.883 0.821293,-1.25216 0.288633,-0.36915 0.578167,-0.63642 0.940195,-0.82019 0.362029,-0.18377 0.796325,-0.28399 1.291931,-0.32851 0.495606,-0.0445 1.052406,-0.0334 1.553565,0.0446 0.501159,0.078 0.9466,0.22277 1.469997,0.52352 0.523397,0.30074 1.124743,0.75732 1.492123,1.30861 0.367381,0.55129 0.501012,1.19718 0.60679,1.9099 0.105778,0.71271 0.18373,1.49223 0.233832,2.43881 0.0501,0.94659 0.07238,2.06019 0.05565,2.81743 -0.01672,0.75725 -0.0724,1.15815 -0.172209,1.50292 -0.09981,0.34476 -0.243716,0.63351 -0.595063,0.7739 -0.351347,0.14039 -0.910421,0.13252 -1.276659,-0.0957 -0.366238,-0.22821 -0.539472,-0.67704 -0.614558,-1.29145 -0.07509,-0.61441 -0.05189,-1.39428 -0.04028,-1.78435 0.0116,-0.39008 0.0116,-0.39008 -0.500289,-0.38997 -0.511893,1.2e-4 -0.904403,2e-4 -1.467224,-0.004 -0.562821,-0.004 -0.980154,-0.0117 -1.232251,0.0198 -0.252097,0.0315 -0.338728,0.10236 -0.38995,0.18519 -0.05122,0.0828 -0.06696,0.17727 -0.09452,0.53952 -0.02755,0.36225 -0.06692,0.9922 -0.125428,1.39736 -0.0585,0.40516 -0.136092,0.58563 -0.238431,0.73519 -0.102338,0.14955 -0.229479,0.2683 -0.415049,0.3749 -0.185571,0.10661 -0.429661,0.20109 -0.683204,0.18076 -0.253543,-0.0203 -0.516685,-0.15568 -0.78015,-0.29121 0,0 0,0 0,0 0,0 0,0 0,0 0,0 0,0 0,0 0,0 -3e-6,4.4e-4 -0.05928,-0.12649 z"
       id="path921"
       sodipodi:nodetypes="ccccccccccccccccccccccccccccccccc" />
    <path
       style="fill:#ffffff;stroke:none;stroke-width:0.264583px;stroke-linecap:butt;stroke-linejoin:miter;stroke-opacity:1"
       d="m 41.521732,168.07026 c 0.180589,-0.0583 0.541607,-0.17478 0.928891,-0.20285 0.387283,-0.0281 0.80069,0.0322 1.147524,0.0776 0.346835,0.0454 0.627086,0.076 0.894512,0.17734 0.267425,0.10131 0.522003,0.27317 0.656505,0.60728 0.134502,0.33411 0.149222,0.83039 0.08124,1.14693 -0.06798,0.31654 -0.218661,0.45362 -0.570489,0.51628 -0.351827,0.0627 -0.90503,0.0509 -1.399374,0.044 -0.494344,-0.007 -0.929785,-0.009 -1.330365,-0.10136 -0.400579,-0.0925 -0.766318,-0.27558 -0.93461,-0.50764 -0.168292,-0.23206 -0.138793,-0.51313 -0.12403,-0.71684 0.01476,-0.20372 0.01476,-0.33011 0.09056,-0.48105 0.0758,-0.15094 0.227412,-0.32619 0.303226,-0.41383 0.07581,-0.0876 0.07582,-0.0876 0.256408,-0.14589 z"
       id="path925"
       sodipodi:nodetypes="scccccccccccss" />
    <path
       style="fill:#000080;stroke:none;stroke-width:0.264583px;stroke-linecap:butt;stroke-linejoin:miter;stroke-opacity:1"
       d="m 49.746901,168.22105 c -0.03697,0.52498 -0.110879,1.5747 -0.100564,2.54057 0.01031,0.96586 0.104807,1.8478 0.124459,2.4541 0.01965,0.6063 -0.03547,0.93702 -0.09452,1.36619 -0.05906,0.42917 -0.122049,0.95676 -0.110732,1.35088 0.01132,0.39412 0.09682,0.65468 0.333151,0.8081 0.236334,0.15341 0.623285,0.19995 0.926983,0.20744 0.303699,0.007 0.524179,-0.024 0.704789,-0.0941 0.180611,-0.0701 0.321525,-0.17884 0.406795,-0.36655 0.08527,-0.18771 0.114961,-0.45466 0.123159,-0.7811 0.0082,-0.32644 -0.0062,-0.74303 0.02403,-1.09326 0.03021,-0.35023 0.104552,-0.6493 0.179728,-0.879 0.07518,-0.22971 0.140541,-0.36751 0.366938,-0.45432 0.226397,-0.0868 0.502315,-0.0799 0.981523,-0.10803 0.479209,-0.0281 1.116774,-0.0925 1.712321,-0.11618 0.595548,-0.0237 1.149004,-0.007 1.524068,-0.0614 0.375064,-0.0546 0.571919,-0.18057 0.753005,-0.3223 0.181086,-0.14172 0.346449,-0.29921 0.484235,-0.4488 0.137786,-0.1496 0.248026,-0.29134 0.326754,-0.40941 0.07873,-0.11807 0.125985,-0.21259 0.16142,-0.30703 0.03543,-0.0944 0.05906,-0.18896 0.102371,-0.31498 0.04331,-0.12602 0.1063,-0.2835 0.181111,-0.50397 0.07481,-0.22048 0.161429,-0.50396 0.181163,-0.80313 0.01973,-0.29917 -0.02751,-0.61414 -0.06868,-0.92862 -0.04116,-0.31447 -0.07623,-0.62842 -0.221797,-0.91192 -0.145564,-0.2835 -0.401847,-0.5365 -0.671723,-0.77327 -0.269876,-0.23677 -0.553349,-0.45725 -0.915401,-0.59026 -0.362052,-0.13302 -0.802647,-0.17837 -1.235745,-0.24135 -0.433098,-0.063 -0.858675,-0.14362 -1.323472,-0.19578 -0.464797,-0.0522 -0.968752,-0.0758 -1.488483,-0.0915 -0.51973,-0.0157 -1.055178,-0.0236 -1.527699,0.0315 -0.472521,0.0551 -0.881989,0.17321 -1.17194,0.43589 -0.289951,0.26269 -0.460144,0.66974 -0.545214,0.8732 -0.08507,0.20346 -0.08507,0.20353 -0.122031,0.72852 z"
       id="path929"
       sodipodi:nodetypes="sccccccccccccccccccccccccccccccccs" />
    <path
       style="fill:#ffffff;stroke:none;stroke-width:0.264583px;stroke-linecap:butt;stroke-linejoin:miter;stroke-opacity:1"
       d="m 52.236517,168.99974 c -0.02687,0.24541 -0.08084,0.73832 -0.144455,1.09517 -0.06362,0.35685 -0.136986,0.57882 -0.01281,0.73258 0.124178,0.15375 0.445507,0.23934 0.861875,0.29303 0.416367,0.0537 0.927777,0.0756 1.476651,-0.001 0.548875,-0.0767 1.135263,-0.25177 1.49368,-0.42017 0.358417,-0.16839 0.488997,-0.33013 0.566098,-0.51327 0.0771,-0.18314 0.100723,-0.38787 0.112548,-0.59653 0.01182,-0.20866 0.01182,-0.42127 -0.07175,-0.65627 -0.08358,-0.23501 -0.250927,-0.49244 -0.483184,-0.63825 -0.232258,-0.14582 -0.529492,-0.17974 -0.808042,-0.21245 -0.278551,-0.0327 -0.538404,-0.0642 -0.814029,-0.08 -0.275626,-0.0158 -0.566978,-0.0158 -0.889863,0.0118 -0.322885,0.0275 -0.677209,0.0827 -0.89254,0.21068 -0.215331,0.12802 -0.291346,0.32874 -0.329328,0.42903 -0.03798,0.10029 -0.03798,0.10029 -0.03798,0.10029 0,0 -2e-6,5e-5 -2e-6,5e-5 0,0 0,0 -0.02687,0.24541 z"
       id="path933"
       sodipodi:nodetypes="sccccccccccccccccs" />
    <path
       style="fill:#000080;stroke:none;stroke-width:0.264583px;stroke-linecap:butt;stroke-linejoin:miter;stroke-opacity:1"
       d="m 62.043278,167.14419 c 0.315047,-0.1339 0.945007,-0.40163 1.689223,-0.53153 0.744216,-0.1299 1.602523,-0.12203 2.377984,0.0595 0.77546,0.18155 1.467978,0.5366 2.027055,0.88706 0.559078,0.35045 0.984717,0.69622 1.366785,1.18413 0.382068,0.48791 0.720666,1.11786 0.933215,1.73601 0.212549,0.61814 0.299167,1.22447 0.318821,1.79535 0.01965,0.57087 -0.02759,1.10633 -0.204786,1.66536 -0.177194,0.55902 -0.484293,1.14172 -0.854358,1.60626 -0.370064,0.46454 -0.803153,0.81101 -1.334635,1.10629 -0.531481,0.29528 -1.161428,0.53939 -1.818898,0.67328 -0.65747,0.1339 -1.342539,0.15753 -1.980356,0.11425 -0.637816,-0.0433 -1.228393,-0.15351 -1.807179,-0.4251 -0.578785,-0.27159 -1.145738,-0.70468 -1.547391,-1.11018 -0.401653,-0.4055 -0.637884,-0.78347 -0.862333,-1.20869 -0.224448,-0.42522 -0.437051,-0.89767 -0.57525,-1.40289 -0.138198,-0.50523 -0.201863,-1.04314 -0.160212,-1.63503 0.04165,-0.59188 0.18869,-1.23756 0.350449,-1.7246 0.161759,-0.48704 0.338233,-0.8153 0.548537,-1.1527 0.210304,-0.3374 0.454408,-0.68387 0.663108,-0.93589 0.2087,-0.25202 0.381937,-0.4095 0.468548,-0.48824 0.08661,-0.0787 0.08663,-0.0788 0.401673,-0.21265 z"
       id="path937"
       sodipodi:nodetypes="scccccccccccccccccccss" />
    <path
       style="fill:#ffffff;stroke:none;stroke-width:0.264583px;stroke-linecap:butt;stroke-linejoin:miter;stroke-opacity:1"
       d="m 62.424995,170.56431 c 0.107443,-0.18998 0.32238,-0.57002 0.621915,-0.84235 0.299535,-0.27233 0.683478,-0.43681 1.084183,-0.54266 0.400705,-0.10585 0.81804,-0.1531 1.290342,-0.12605 0.472302,0.0271 0.99946,0.12831 1.472447,0.43262 0.472988,0.30431 0.891848,0.81143 1.100394,1.29661 0.208547,0.48517 0.207013,0.94839 0.120666,1.37916 -0.08635,0.43076 -0.25745,0.82918 -0.355862,1.13793 -0.09841,0.30876 -0.124155,0.52772 -0.357464,0.76926 -0.23331,0.24155 -0.674271,0.50594 -1.079375,0.69621 -0.405104,0.19027 -0.774412,0.30641 -1.219041,0.29047 -0.444628,-0.016 -0.9647,-0.16412 -1.335484,-0.36056 -0.370783,-0.19643 -0.59219,-0.4413 -0.808768,-0.72477 -0.216577,-0.28348 -0.428251,-0.60556 -0.566466,-0.9521 -0.138215,-0.34654 -0.202811,-0.71751 -0.203066,-1.09888 -2.56e-4,-0.38137 0.06392,-0.77304 0.09602,-0.96898 0.0321,-0.19594 0.03211,-0.19594 0.139556,-0.38591 z"
       id="path941"
       sodipodi:nodetypes="sccccccccccccccss" />
    <path
       style="fill:#000080;stroke:none;stroke-width:0.264583px;stroke-linecap:butt;stroke-linejoin:miter;stroke-opacity:1"
       d="m 72.98125,172.29665 c -0.241105,-0.17559 -0.419846,-0.39995 -0.546594,-0.75588 -0.126748,-0.35593 -0.201321,-0.84343 -0.202169,-1.27125 -8.48e-4,-0.42783 0.07211,-0.79587 0.223578,-1.19001 0.151464,-0.39414 0.381432,-0.81425 0.756369,-1.13857 0.374937,-0.32431 0.894646,-0.55267 1.327758,-0.72984 0.433111,-0.17718 0.779583,-0.30317 1.141856,-0.38978 0.362272,-0.0866 0.740235,-0.13385 1.16944,-0.11412 0.429204,0.0197 0.909536,0.10634 1.425329,0.25206 0.515794,0.14571 1.067002,0.35044 1.480389,0.59069 0.413388,0.24025 0.688989,0.51585 0.900107,0.77714 0.211119,0.26129 0.357826,0.50821 0.389204,0.7483 0.03138,0.2401 -0.05233,0.47352 -0.145368,0.66499 -0.09303,0.19147 -0.195399,0.34108 -0.45908,0.45915 -0.263681,0.11807 -0.688896,0.20469 -1.019572,0.2087 -0.330675,0.004 -0.566899,-0.0747 -0.804387,-0.16414 -0.237488,-0.0894 -0.476247,-0.18951 -0.779428,-0.27223 -0.30318,-0.0827 -0.670761,-0.14799 -0.988443,-0.18458 -0.317682,-0.0366 -0.5854,-0.0445 -0.853159,-0.0287 -0.267759,0.0157 -0.535489,0.0551 -0.708865,0.14178 -0.173377,0.0867 -0.252119,0.22054 -0.297801,0.39949 -0.04568,0.17895 -0.05834,0.40282 0.106177,0.51746 0.164512,0.11465 0.50589,0.12032 1.051628,0.12648 0.545738,0.006 1.2958,0.0128 1.871663,0.0595 0.575864,0.0467 0.97745,0.1333 1.367247,0.26721 0.389798,0.13391 0.767766,0.31502 1.094511,0.59464 0.326745,0.27962 0.602348,0.65759 0.803082,1.07495 0.200734,0.41736 0.326726,0.87408 0.338476,1.42131 0.01175,0.54723 -0.09062,1.18506 -0.287467,1.65743 -0.196849,0.47237 -0.488199,0.77947 -0.939551,1.04619 -0.451351,0.26673 -1.062823,0.49312 -1.751815,0.66637 -0.688992,0.17325 -1.45553,0.29333 -2.149809,0.2668 -0.694278,-0.0265 -1.316352,-0.19975 -1.914817,-0.42808 -0.598465,-0.22833 -1.173295,-0.5118 -1.637918,-0.82278 -0.464623,-0.31099 -0.81897,-0.64956 -0.939822,-0.9695 -0.120853,-0.31995 -0.0079,-0.62113 0.110231,-0.9125 0.118119,-0.29137 0.241384,-0.57289 0.527624,-0.67037 0.286241,-0.0975 0.735075,-0.0109 1.109122,0.11125 0.374046,0.12211 0.673273,0.2796 1.026632,0.44877 0.35336,0.16917 0.76083,0.35005 1.200264,0.41223 0.439433,0.0622 0.842878,0.014 1.310329,-0.0473 0.467452,-0.0613 0.96487,-0.13162 1.239224,-0.32871 0.274355,-0.19709 0.325886,-0.52118 0.249396,-0.74326 -0.07649,-0.22208 -0.281338,-0.34211 -0.631251,-0.44287 -0.349913,-0.10075 -0.844826,-0.18209 -1.334061,-0.19093 -0.489235,-0.009 -0.972654,0.0549 -1.468398,-0.0476 -0.495743,-0.10249 -1.003852,-0.37136 -1.409615,-0.56932 -0.405764,-0.19795 -0.70914,-0.32493 -0.950246,-0.50052 z"
       id="path945"
       sodipodi:nodetypes="cccccccccccccccccccccccccccccccccccccccccccccccc" />
    <path
       style="fill:#000080;stroke:none;stroke-width:0.264583px;stroke-linecap:butt;stroke-linejoin:miter;stroke-opacity:1"
       d="m 85.661714,170.57946 c -0.03838,0.44073 -0.115127,1.32193 -0.153489,2.17203 -0.03836,0.8501 -0.03836,1.66903 -0.02261,2.40925 0.01575,0.74021 0.04725,1.40166 0.09875,1.83605 0.0515,0.43438 0.106222,0.59322 0.295316,0.77427 0.189094,0.18104 0.504,0.36021 0.831263,0.40149 0.327264,0.0413 0.667018,-0.0551 0.883454,-0.22826 0.216436,-0.17315 0.309776,-0.42323 0.399776,-1.17819 0.09,-0.75497 0.176618,-2.01487 0.240194,-3.1468 0.06358,-1.13192 0.104098,-2.13582 0.09591,-2.71578 -0.0082,-0.57996 -0.06523,-0.73603 0.170525,-0.78148 0.235755,-0.0455 0.764089,0.02 1.145361,0.0404 0.381272,0.0204 0.615505,-0.004 0.87533,-0.0631 0.259826,-0.0591 0.545298,-0.1527 0.703695,-0.34506 0.158396,-0.19236 0.189892,-0.48371 0.170291,-0.70416 -0.0196,-0.22045 -0.09047,-0.37006 -0.232164,-0.57087 -0.141698,-0.20082 -0.354305,-0.4528 -0.578696,-0.61826 -0.22439,-0.16545 -0.460616,-0.2442 -0.854364,-0.3033 -0.393748,-0.0591 -0.944953,-0.0985 -1.858416,-0.11817 -0.913464,-0.0197 -2.189108,-0.0197 -3.027748,-0.0236 -0.838641,-0.004 -1.240224,-0.0118 -1.547434,0.0551 -0.307211,0.0669 -0.519819,0.20865 -0.6016,0.42955 -0.08178,0.2209 -0.03272,0.5206 -0.04065,0.77645 -0.0079,0.25586 -0.07274,0.46799 0.0053,0.65283 0.07802,0.18484 0.298495,0.34232 0.609544,0.46036 0.311049,0.11804 0.712644,0.19679 0.968527,0.22825 0.255883,0.0314 0.366119,0.0157 0.585661,0.0279 0.219542,0.0122 0.548236,0.0523 0.712454,0.0723 0.164219,0.02 0.164219,0.02 0.125836,0.46075 z"
       id="path949"
       sodipodi:nodetypes="ccccccccccccccccccccccccccccc" />
    <path
       style="fill:#000080;stroke:none;stroke-width:0.264583px;stroke-linecap:butt;stroke-linejoin:miter;stroke-opacity:1"
       d="m 92.474206,170.76657 c -0.129956,0.3938 -0.389814,1.18125 -0.488206,1.95303 -0.09839,0.77177 -0.0354,1.52771 0.16548,2.22069 0.200877,0.69297 0.539475,1.32292 0.909631,1.82686 0.370156,0.50394 0.771748,0.88191 1.232435,1.18108 0.460688,0.29918 0.980395,0.51966 1.459724,0.64229 0.47933,0.12264 0.918295,0.14754 1.491013,0.10906 0.572718,-0.0385 1.279208,-0.14026 1.890462,-0.26691 0.611254,-0.12665 1.127285,-0.27813 1.660825,-0.64914 0.53355,-0.37101 1.08475,-0.96158 1.47452,-1.54424 0.38976,-0.58266 0.61812,-1.15749 0.70871,-1.81888 0.0906,-0.6614 0.0433,-1.40945 -0.0787,-2.03546 -0.122,-0.62601 -0.31886,-1.12997 -0.51963,-1.56701 -0.20078,-0.43704 -0.40551,-0.80714 -0.72832,-1.18909 -0.3228,-0.38195 -0.76377,-0.77566 -1.21654,-1.05921 -0.452768,-0.28356 -0.917351,-0.45679 -1.496145,-0.58676 -0.578794,-0.12997 -1.271742,-0.21659 -1.878129,-0.21269 -0.606387,0.004 -1.126088,0.0984 -1.61439,0.30707 -0.488301,0.20868 -0.945015,0.53153 -1.346633,0.83865 -0.401618,0.30711 -0.748089,0.59846 -0.988293,0.83867 -0.240205,0.24021 -0.374068,0.42919 -0.440983,0.52366 -0.06691,0.0945 -0.06691,0.0945 -0.196871,0.48833 z"
       id="path953" />
    <path
       style="fill:#ffffff;stroke:none;stroke-width:0.264583px;stroke-linecap:butt;stroke-linejoin:miter;stroke-opacity:1"
       d="m 95.267157,171.71477 c -0.124582,0.30258 -0.373691,0.9076 -0.490266,1.41278 -0.116574,0.50519 -0.100678,0.91039 0.0017,1.22324 0.102413,0.31285 0.2911,0.53332 0.533229,0.75457 0.242128,0.22126 0.653425,0.53036 0.995192,0.7204 0.341767,0.19004 0.671865,0.30464 1.112496,0.34076 0.44063,0.0361 0.99183,-0.006 1.463387,-0.13522 0.471556,-0.12909 0.863586,-0.34499 1.153639,-0.80417 0.29005,-0.45917 0.47823,-1.1618 0.46178,-1.78843 -0.0165,-0.62664 -0.23769,-1.17737 -0.527757,-1.6588 -0.290062,-0.48144 -0.649025,-0.8935 -1.021997,-1.11655 -0.372972,-0.22305 -0.759971,-0.25681 -1.145839,-0.26587 -0.385869,-0.009 -0.770561,0.007 -1.140053,0.0401 -0.369491,0.0335 -0.723734,0.0849 -0.933119,0.25039 -0.209385,0.16553 -0.273636,0.44499 -0.305739,0.58462 -0.0321,0.13964 -0.03211,0.13961 -0.156689,0.44217 z"
       id="path957"
       sodipodi:nodetypes="cccccccccccccccc" />
    <path
       style="fill:#000080;stroke:none;stroke-width:0.264583px;stroke-linecap:butt;stroke-linejoin:miter;stroke-opacity:1"
       d="m 105.24144,170.07722 c -0.11768,0.83084 -0.2354,1.66191 -0.27859,2.69824 -0.0432,1.03633 -0.0119,2.27804 0.0311,3.28874 0.043,1.01071 0.0977,1.79033 0.18848,2.25614 0.0908,0.46581 0.21742,0.6178 0.52881,0.70152 0.31139,0.0837 0.80748,0.0995 1.3892,0.1105 0.58172,0.011 1.24903,0.0174 2.08768,0.0214 0.83864,0.004 1.84855,0.006 2.47687,-0.0447 0.62833,-0.0504 0.87516,-0.15292 1.05224,-0.33 0.17708,-0.17709 0.2846,-0.42896 0.31086,-0.66899 0.0263,-0.24002 -0.0289,-0.46838 -0.15083,-0.68888 -0.12197,-0.2205 -0.31095,-0.43311 -0.54715,-0.59068 -0.23621,-0.15758 -0.51968,-0.25995 -0.89769,-0.323 -0.378,-0.0631 -0.85046,-0.0867 -1.46725,-0.094 -0.6168,-0.007 -1.37789,0.002 -1.82868,-0.0103 -0.45078,-0.0119 -0.59129,-0.0446 -0.64794,-0.35219 -0.0566,-0.30756 -0.0291,-0.89006 -0.007,-1.74829 0.0217,-0.85822 0.0374,-1.99213 0.0611,-2.80322 0.0236,-0.81108 0.0551,-1.29929 -0.004,-1.74417 -0.059,-0.44488 -0.2086,-0.84647 -0.38175,-1.09853 -0.17314,-0.25206 -0.37,-0.35443 -0.69351,-0.36304 -0.32352,-0.009 -0.77356,0.0767 -0.99837,0.38987 -0.2248,0.31313 -0.22414,0.85343 -0.22347,1.39402 0,0 2.3e-4,-3.7e-4 2.3e-4,-3.7e-4 z"
       id="path961"
       sodipodi:nodetypes="ccccccccccccccccccccccccc" />
    <path
       style="fill:#000080;stroke:none;stroke-width:0.264583px;stroke-linecap:butt;stroke-linejoin:miter;stroke-opacity:1"
       d="m 115.05438,172.94786 c 0.008,0.9687 0.0237,2.90582 0.0982,4.06506 0.0746,1.15923 0.20781,1.5405 0.28297,1.78447 0.0752,0.24398 0.0923,0.35066 0.21083,0.51042 0.11853,0.15977 0.33824,0.37263 0.67361,0.4316 0.33537,0.059 0.78643,-0.0356 1.02257,-0.34261 0.23614,-0.30696 0.25754,-0.82654 0.2958,-1.41708 0.0383,-0.59054 0.0934,-1.25199 0.11702,-2.12212 0.0236,-0.87013 0.0158,-1.94892 -0.0118,-2.88205 -0.0276,-0.93313 -0.0748,-1.72056 -0.13383,-2.29146 -0.059,-0.57089 -0.12991,-0.92523 -0.22435,-1.20478 -0.0944,-0.27954 -0.21254,-0.48427 -0.42906,-0.58287 -0.21651,-0.0986 -0.53149,-0.0907 -0.79143,-0.0317 -0.25994,0.059 -0.46467,0.16927 -0.62825,0.32398 -0.16359,0.1547 -0.28586,0.35371 -0.38034,0.71603 -0.0945,0.36231 -0.1612,0.88772 -0.17483,1.26072 -0.0136,0.37299 0.0257,0.59348 0.0454,0.70357 0.0197,0.11009 0.0196,0.11011 0.0274,1.07881 z"
       id="path965"
       sodipodi:nodetypes="cccccccccccccccccc" />
    <path
       style="fill:#000080;stroke:none;stroke-width:0.264583px;stroke-linecap:butt;stroke-linejoin:miter;stroke-opacity:1"
       d="m 120.22003,172.59348 c -0.0709,0.47259 -0.21262,1.41753 -0.20075,2.2129 0.0119,0.79538 0.17723,1.44108 0.46041,1.96191 0.28317,0.52084 0.68396,0.91684 1.0383,1.31058 0.35434,0.39375 0.66223,0.78518 1.17847,1.14226 0.51623,0.35708 1.24067,0.67993 1.9533,0.84522 0.71262,0.16529 1.41344,0.17316 2.08933,0.0351 0.67588,-0.13811 1.32695,-0.42212 1.93328,-0.71348 0.60632,-0.29136 1.16791,-0.59005 1.45652,-0.92036 0.28861,-0.33031 0.30435,-0.69253 0.27289,-1.00749 -0.0315,-0.31495 -0.1102,-0.58268 -0.27939,-0.79142 -0.16919,-0.20874 -0.42905,-0.35836 -0.74411,-0.37816 -0.31505,-0.0198 -0.68514,0.0905 -1.06734,0.29397 -0.38219,0.20353 -0.77633,0.50031 -1.27097,0.67857 -0.49464,0.17827 -1.08994,0.23801 -1.52199,0.22399 -0.43206,-0.014 -0.70095,-0.1019 -1.02628,-0.23569 -0.32533,-0.13378 -0.7071,-0.3135 -1.02295,-0.64854 -0.31586,-0.33504 -0.56561,-0.82553 -0.73643,-1.38519 -0.17082,-0.55966 -0.26259,-1.18842 -0.0776,-1.73191 0.18503,-0.5435 0.64689,-1.0014 0.99142,-1.32078 0.34453,-0.31938 0.57168,-0.50019 0.94996,-0.59059 0.37828,-0.0904 0.90744,-0.0904 1.35692,0.0159 0.44948,0.10625 0.81921,0.31857 1.18125,0.53104 0.36205,0.21247 0.7164,0.42507 1.05107,0.57464 0.33467,0.14957 0.64964,0.23619 0.93696,0.21643 0.28732,-0.0198 0.54717,-0.14575 0.71245,-0.31888 0.16528,-0.17312 0.23616,-0.39361 0.25589,-0.62584 0.0197,-0.23224 -0.0118,-0.47635 -0.16472,-0.69416 -0.15296,-0.21782 -0.42759,-0.40924 -0.60487,-0.61786 -0.17727,-0.20863 -0.25697,-0.43455 -0.54083,-0.69325 -0.28387,-0.2587 -0.77208,-0.55006 -1.33906,-0.71551 -0.56699,-0.16545 -1.21269,-0.20482 -1.90567,-0.19696 -0.69298,0.008 -1.43317,0.063 -2.0632,0.21258 -0.63003,0.1496 -1.14974,0.39371 -1.61834,0.74416 -0.46859,0.35045 -0.88593,0.80716 -1.13794,1.17735 -0.25201,0.37019 -0.33862,0.65365 -0.38191,0.79531 -0.0433,0.14166 -0.0432,0.14168 -0.11411,0.61426 z"
       id="path969"
       sodipodi:nodetypes="ccccccccccccccccccccccccccccccccccccc" />
    <path
       style="fill:#d4aa00;stroke:none;stroke-width:0.264583px;stroke-linecap:butt;stroke-linejoin:miter;stroke-opacity:1"
       d="m 90.508784,187.66141 c -0.200359,0.0501 -0.601261,0.15031 -0.963158,0.20601 -0.361897,0.0557 -0.684842,0.0668 -1.024475,0.0335 -0.339633,-0.0334 -0.695984,-0.11133 -0.952202,-0.32836 -0.256219,-0.21704 -0.412121,-0.57339 -0.501269,-0.87408 -0.08915,-0.3007 -0.111421,-0.5457 -0.105883,-0.77402 0.0055,-0.22833 0.03895,-0.43992 0.155895,-0.64605 0.116949,-0.20613 0.317396,-0.40657 0.540207,-0.54023 0.22281,-0.13366 0.467818,-0.20048 0.72959,-0.1837 0.261772,0.0168 0.540174,0.11702 0.91881,0.23951 0.378636,0.12249 0.857482,0.26725 1.219295,0.26718 0.361813,-7e-5 0.606806,-0.14484 0.768214,-0.33405 0.161408,-0.18922 0.239361,-0.42308 0.21164,-0.6513 -0.02772,-0.22821 -0.161353,-0.45093 -0.445272,-0.70712 -0.283918,-0.25619 -0.718225,-0.54573 -1.13027,-0.74068 -0.412046,-0.19495 -0.801796,-0.29517 -1.280724,-0.27296 -0.478928,0.0222 -1.046862,0.16698 -1.59818,0.43426 -0.551318,0.26728 -1.085845,0.65704 -1.453393,1.09701 -0.367549,0.43997 -0.567999,0.92996 -0.673768,1.49798 -0.105769,0.56802 -0.116906,1.2139 -0.02217,1.74847 0.09474,0.53457 0.295186,0.95774 0.542383,1.3047 0.247197,0.34695 0.541002,0.61773 0.824991,0.85158 0.283989,0.23384 0.55812,0.43077 1.023698,0.5347 0.465578,0.10393 1.122602,0.11506 1.710009,0.0764 0.587408,-0.0386 1.10523,-0.12704 1.539469,-0.28852 0.434239,-0.16149 0.785034,-0.39604 0.971529,-0.64125 0.186495,-0.2452 0.208768,-0.50133 0.192121,-0.72402 -0.01665,-0.22269 -0.07233,-0.41201 -0.178016,-0.52905 -0.105687,-0.11705 -0.261579,-0.16158 -0.406421,-0.16722 -0.144842,-0.006 -0.278472,0.0278 -0.345382,0.0445 -0.06691,0.0167 -0.06691,0.0168 -0.267269,0.0668 z"
       id="path973" />
    <path
       style="fill:#d4aa00;stroke:none;stroke-width:0.264583px;stroke-linecap:butt;stroke-linejoin:miter;stroke-opacity:1"
       d="m 92.973413,188.68317 c -0.05314,-0.43495 -0.106313,-0.87018 -0.08838,-1.53329 0.01793,-0.66311 0.107018,-1.55399 0.15714,-2.24443 0.05012,-0.69044 0.06126,-1.18042 0.128067,-1.50348 0.06681,-0.32307 0.189304,-0.47897 0.3732,-0.55694 0.183896,-0.078 0.428887,-0.078 0.612665,-0.0445 0.183778,0.0335 0.306264,0.1003 0.389651,0.29525 0.08339,0.19495 0.12793,0.51789 0.166904,0.81857 0.03898,0.30069 0.07238,0.57909 0.144838,0.82131 0.07245,0.24223 0.183812,0.44824 0.478956,0.52045 0.295143,0.0722 0.773993,0.011 1.1081,-0.0197 0.334108,-0.0306 0.52342,-0.0306 0.662469,-0.10296 0.139049,-0.0724 0.228138,-0.21712 0.292175,-0.39523 0.06404,-0.17812 0.103013,-0.38971 0.150336,-0.60409 0.04732,-0.21438 0.103005,-0.43154 0.192116,-0.60424 0.08911,-0.1727 0.21161,-0.30077 0.348069,-0.41216 0.136459,-0.11138 0.286789,-0.20603 0.487369,-0.22825 0.20058,-0.0222 0.451119,0.0279 0.615281,0.17836 0.164162,0.15047 0.24211,0.40102 0.275463,0.61815 0.03335,0.21712 0.02222,0.40086 0.01387,0.71547 -0.0083,0.31462 -0.01391,0.76006 -0.02784,1.3113 -0.01392,0.55125 -0.0362,1.20827 -0.05847,1.72889 -0.02228,0.52062 -0.04455,0.90481 -0.05568,1.20272 -0.01113,0.29791 -0.01113,0.50949 -0.03621,0.75725 -0.02508,0.24776 -0.07519,0.53172 -0.18926,0.71533 -0.114073,0.18362 -0.292247,0.26714 -0.473132,0.30337 -0.180885,0.0362 -0.364626,0.0251 -0.501153,-0.0306 -0.136527,-0.0557 -0.225807,-0.15629 -0.295513,-0.40128 -0.06971,-0.24499 -0.11963,-0.63439 -0.175208,-0.99059 -0.05558,-0.3562 -0.116821,-0.67914 -0.183594,-0.92135 -0.06677,-0.2422 -0.139155,-0.40368 -0.303332,-0.5096 -0.164176,-0.10592 -0.42032,-0.15604 -0.68761,-0.18112 -0.267289,-0.0251 -0.545689,-0.0251 -0.804687,0.0334 -0.258998,0.0584 -0.498423,0.17537 -0.629337,0.3704 -0.130913,0.19504 -0.153186,0.46787 -0.181034,0.71843 -0.02785,0.25056 -0.06126,0.47885 -0.114163,0.72661 -0.05291,0.24775 -0.125291,0.51502 -0.233835,0.70981 -0.108544,0.19478 -0.253307,0.31728 -0.434154,0.37854 -0.180846,0.0613 -0.397997,0.0613 -0.578986,-0.036 -0.180988,-0.0973 -0.325755,-0.29218 -0.417715,-0.51212 -0.09196,-0.21994 -0.130936,-0.46493 -0.143363,-0.65103 -0.01243,-0.1861 0.0018,-0.31348 0.01599,-0.44062"
       id="path977"
       sodipodi:nodetypes="cccccccccccccccccccccccccccccccccccccccccc" />
    <path
       style="fill:#d4aa00;stroke:none;stroke-width:0.264583px;stroke-linecap:butt;stroke-linejoin:miter;stroke-opacity:1"
       d="m 100.55079,184.66313 c -0.0139,0.27575 -0.0418,0.82699 -0.0362,1.4033 0.006,0.57632 0.0446,1.17766 0.11697,1.74842 0.0724,0.57075 0.17819,1.11084 0.39547,1.52007 0.21727,0.40924 0.54578,0.68763 0.91608,0.90473 0.3703,0.2171 0.78233,0.373 1.23332,0.43976 0.45099,0.0668 0.94098,0.0445 1.4031,-0.0223 0.46213,-0.0668 0.89643,-0.17819 1.21231,-0.32485 0.31589,-0.14666 0.51351,-0.32864 0.69167,-0.50959 0.17817,-0.18095 0.3369,-0.36088 0.43854,-0.64842 0.10164,-0.28754 0.14618,-0.68287 0.16568,-1.15058 0.0195,-0.4677 0.0139,-1.00781 0.003,-1.51729 -0.0111,-0.50948 -0.0278,-0.98833 -0.0529,-1.4644 -0.025,-0.47608 -0.0584,-0.94937 -0.13348,-1.23058 -0.075,-0.28121 -0.19197,-0.37031 -0.33117,-0.42886 -0.13921,-0.0585 -0.30067,-0.0864 -0.45945,-0.0642 -0.15877,0.0222 -0.3147,0.0946 -0.42336,0.22836 -0.10867,0.13375 -0.16991,0.32863 -0.22559,0.55973 -0.0557,0.2311 -0.10579,0.49837 -0.13918,0.75173 -0.0334,0.25337 -0.0501,0.49279 -0.0724,0.77398 -0.0223,0.2812 -0.0501,0.60415 -0.0863,1.00227 -0.0362,0.39812 -0.0807,0.8714 -0.102,1.18378 -0.0213,0.31238 -0.0193,0.46383 -0.15843,0.58339 -0.13916,0.11955 -0.41967,0.20753 -0.69906,0.23208 -0.27939,0.0246 -0.55779,-0.0144 -0.81114,-0.10622 -0.25335,-0.0918 -0.48164,-0.23657 -0.60705,-0.41749 -0.12542,-0.18092 -0.14768,-0.39807 -0.15883,-0.68206 -0.0112,-0.28399 -0.0112,-0.63477 -0.0167,-0.99392 -0.006,-0.35914 -0.0167,-0.72663 -0.025,-1.05793 -0.008,-0.3313 -0.0139,-0.62642 -0.0445,-0.8881 -0.0306,-0.26168 -0.0863,-0.48997 -0.15583,-0.69319 -0.0696,-0.20322 -0.15309,-0.38143 -0.25601,-0.49566 -0.10292,-0.11424 -0.22544,-0.16436 -0.38975,-0.17279 -0.16431,-0.008 -0.37032,0.025 -0.52913,0.10295 -0.15881,0.078 -0.27017,0.20048 -0.35928,0.3481 -0.0891,0.14763 -0.15593,0.32022 -0.20046,0.45946 -0.0445,0.13923 -0.0668,0.24503 -0.0779,0.29783 -0.0111,0.0528 -0.0109,0.0528 -0.0249,0.3285 z"
       id="path981" />
    <path
       style="fill:#d4aa00;stroke:none;stroke-width:0.264583px;stroke-linecap:butt;stroke-linejoin:miter;stroke-opacity:1"
       d="m 108.36007,184.79119 c -0.006,0.48735 -0.0167,1.46177 2e-5,2.31649 0.0167,0.85472 0.0613,1.5897 0.0891,2.16043 0.0278,0.57073 0.039,0.97717 0.15046,1.289 0.11149,0.31183 0.32307,0.52897 0.62927,0.57615 0.30621,0.0472 0.7071,-0.0753 0.90747,-0.13655 0.20037,-0.0612 0.20037,-0.0612 0.22819,-0.23373 0.0278,-0.1725 0.0835,-0.51772 0.11136,-0.78218 0.0279,-0.26447 0.0279,-0.44821 0.039,-0.61807 0.0111,-0.16985 0.0334,-0.32574 0.11415,-0.45672 0.0808,-0.13098 0.21998,-0.23677 0.39547,-0.3008 0.17549,-0.064 0.38708,-0.0863 0.59312,0.006 0.20604,0.092 0.40648,0.29803 0.52607,0.57088 0.1196,0.27285 0.15857,0.61251 0.20315,0.86309 0.0446,0.25059 0.0947,0.41205 0.1671,0.59302 0.0724,0.18097 0.16706,0.38141 0.37871,0.47591 0.21165,0.0945 0.54016,0.0834 0.77394,0.036 0.23378,-0.0473 0.37296,-0.13086 0.48148,-0.35625 0.10852,-0.22539 0.18647,-0.59288 0.21991,-0.87682 0.0334,-0.28394 0.0223,-0.48438 -0.0416,-0.67368 -0.0639,-0.18931 -0.18087,-0.36748 -0.23943,-0.45673 -0.0586,-0.0892 -0.39265,-0.42337 -0.46213,-0.50675 -0.0695,-0.0834 -0.20869,-0.25042 -0.12525,-0.4399 0.0834,-0.18948 0.38967,-0.40106 0.61513,-0.61539 0.22547,-0.21432 0.37024,-0.43147 0.4482,-0.66246 0.078,-0.23098 0.0891,-0.47597 0.0891,-0.68755 1e-5,-0.21158 -0.0111,-0.38975 -0.0695,-0.6236 -0.0584,-0.23384 -0.16421,-0.52338 -0.36457,-0.77121 -0.20036,-0.24784 -0.49547,-0.45386 -0.8212,-0.59592 -0.32574,-0.14206 -0.68209,-0.22001 -1.05517,-0.26736 -0.37309,-0.0474 -0.76285,-0.0641 -1.16655,-0.0641 -0.4037,-10e-6 -0.8213,0.0167 -1.20272,0.0278 -0.38142,0.0111 -0.72663,0.0167 -0.98848,0.13644 -0.26184,0.11974 -0.44002,0.3536 -0.5291,0.47051 -0.0891,0.11691 -0.0891,0.11691 -0.0946,0.60425 z"
       id="path985"
       sodipodi:nodetypes="sccccccccccccccccccccccccccccccccss" />
    <path
       style="fill:#ffffff;stroke:none;stroke-width:0.264583px;stroke-linecap:butt;stroke-linejoin:miter;stroke-opacity:1"
       d="m 109.98322,185.90206 c 0.0307,0.11152 0.0919,0.33425 0.16989,0.55976 0.078,0.22551 0.17263,0.45378 0.54319,0.576 0.37057,0.12221 1.01682,0.13864 1.48996,-0.11461 0.47314,-0.25326 0.77342,-0.77625 0.9236,-1.0378 0.15017,-0.26156 0.15017,-0.26156 0.0834,-0.3672 -0.0667,-0.10565 -0.20035,-0.31723 -0.39518,-0.4788 -0.19483,-0.16156 -0.45095,-0.27291 -0.80456,-0.30918 -0.35362,-0.0363 -0.80464,0.003 -1.12769,0.089 -0.32304,0.0863 -0.51792,0.21993 -0.63768,0.40103 -0.11977,0.18109 -0.16431,0.40937 -0.18656,0.52341 -0.0222,0.11404 -0.0891,0.0472 -0.0891,0.0472 0,0 -4e-5,-3.7e-4 0.0306,0.11115 z"
       id="path989"
       sodipodi:nodetypes="scccccccccsss" />
    <path
       style="fill:#d4aa00;stroke:none;stroke-width:0.264583px;stroke-linecap:butt;stroke-linejoin:miter;stroke-opacity:1"
       d="m 115.48169,187.26901 c 0,0.22564 0,0.67666 0.078,1.08595 0.078,0.40928 0.23393,0.77678 0.46599,1.10591 0.23206,0.32913 0.54012,0.61995 0.84916,0.88721 0.30905,0.26726 0.61904,0.51097 0.99955,0.68007 0.38051,0.1691 0.83152,0.26375 1.37996,0.29156 0.54843,0.0278 1.19432,-0.0112 1.66816,-0.13676 0.47384,-0.12559 0.7758,-0.33774 1.00965,-0.51035 0.23385,-0.17261 0.39961,-0.30567 0.49637,-0.46952 0.0968,-0.16384 0.1246,-0.35873 0.10519,-0.53128 -0.0194,-0.17256 -0.0862,-0.32292 -0.15018,-0.41209 -0.064,-0.0892 -0.12518,-0.117 -0.24489,-0.17545 -0.11971,-0.0585 -0.2979,-0.14755 -0.49283,-0.17827 -0.19493,-0.0307 -0.40651,-0.003 -0.59872,0.089 -0.19221,0.0919 -0.36482,0.24778 -0.58464,0.3313 -0.21982,0.0835 -0.48709,0.0947 -0.81282,0.0891 -0.32573,-0.006 -0.70992,-0.0278 -1.01339,-0.15576 -0.30347,-0.12794 -0.52619,-0.36179 -0.70164,-0.60955 -0.17545,-0.24776 -0.30352,-0.50945 -0.34815,-0.79626 -0.0446,-0.2868 -0.006,-0.59861 0.0806,-0.85483 0.0863,-0.25622 0.21994,-0.45667 0.39538,-0.63212 0.17544,-0.17544 0.3926,-0.32578 0.65998,-0.39257 0.26738,-0.0668 0.58476,-0.0501 0.92165,-0.0139 0.33688,0.0362 0.69323,0.0919 0.98836,0.16989 0.29512,0.078 0.52898,0.17822 0.74612,0.23663 0.21714,0.0584 0.41758,0.0751 0.57056,0.025 0.15297,-0.0501 0.25877,-0.16706 0.33392,-0.29226 0.0751,-0.12521 0.11969,-0.25886 0.13088,-0.40355 0.0112,-0.1447 -0.0111,-0.30061 -0.12513,-0.5122 -0.11406,-0.21159 -0.32007,-0.47886 -0.54554,-0.66547 -0.22546,-0.18661 -0.47045,-0.2924 -0.77671,-0.39265 -0.30625,-0.10026 -0.67374,-0.19491 -1.11365,-0.24785 -0.43991,-0.0529 -0.95216,-0.0641 -1.43389,0.0417 -0.48173,0.10576 -0.93274,0.32848 -1.23904,0.5234 -0.3063,0.19491 -0.46777,0.36195 -0.67102,0.59304 -0.20325,0.23109 -0.44824,0.52619 -0.6153,0.80745 -0.16706,0.28126 -0.25614,0.54853 -0.31181,0.74622 -0.0557,0.1977 -0.0779,0.32577 -0.0891,0.3897 -0.0111,0.0639 -0.0111,0.0639 -0.0111,0.28957 z"
       id="path993" />
    <path
       style="fill:#d4aa00;stroke:none;stroke-width:0.264583px;stroke-linecap:butt;stroke-linejoin:miter;stroke-opacity:1"
       d="m 124.04823,185.39255 c -0.0195,0.47063 -0.0585,1.41164 -0.064,2.28585 -0.006,0.87422 0.0223,1.68158 0.0669,2.20779 0.0446,0.5262 0.10583,0.7712 0.18939,1.00785 0.0836,0.23664 0.18934,0.46493 0.37874,0.59565 0.18939,0.13071 0.46222,0.16412 0.64301,0.089 0.18079,-0.0751 0.26988,-0.25888 0.35898,-0.53725 0.0891,-0.27836 0.17818,-0.65143 0.22552,-0.92424 0.0473,-0.27281 0.0529,-0.44542 0.064,-0.54853 0.0111,-0.10311 0.0278,-0.13651 0.0501,-0.18936 0.0222,-0.0529 0.0501,-0.12527 0.14209,-0.18661 0.092,-0.0613 0.24788,-0.11144 0.5681,-0.13647 0.32022,-0.025 0.80463,-0.025 1.08299,0.0336 0.27836,0.0586 0.35076,0.17556 0.43429,0.30362 0.0835,0.12806 0.17819,0.26727 0.25609,0.44824 0.0779,0.18096 0.13914,0.40369 0.1976,0.61806 0.0585,0.21437 0.11415,0.42039 0.20365,0.58279 0.0895,0.16241 0.21264,0.28124 0.36022,0.39536 0.14757,0.11411 0.31954,0.22357 0.50267,0.2023 0.18312,-0.0213 0.37766,-0.17304 0.50291,-0.39566 0.12524,-0.22261 0.18126,-0.51628 0.20095,-0.84126 0.0197,-0.32499 0.003,-0.68134 -0.036,-1.47759 -0.039,-0.79626 -0.10023,-2.03236 -0.14755,-2.79518 -0.0473,-0.76282 -0.0807,-1.05237 -0.14745,-1.24729 -0.0667,-0.19491 -0.1669,-0.2951 -0.29774,-0.35368 -0.13084,-0.0586 -0.29231,-0.0753 -0.48733,0.005 -0.19501,0.0807 -0.4233,0.25889 -0.56254,0.45945 -0.13925,0.20056 -0.18936,0.4233 -0.21718,0.66276 -0.0278,0.23946 -0.0334,0.49558 -0.0946,0.67084 -0.0612,0.17525 -0.17816,0.26991 -0.39799,0.31169 -0.21982,0.0418 -0.54276,0.0307 -0.84901,0.0112 -0.30624,-0.0195 -0.59578,-0.0473 -0.80459,-0.12514 -0.20882,-0.0778 -0.33688,-0.2059 -0.43163,-0.40076 -0.0948,-0.19487 -0.15601,-0.45657 -0.17277,-0.68212 -0.0168,-0.22555 0.0111,-0.41487 -0.0584,-0.62642 -0.0695,-0.21155 -0.23652,-0.4454 -0.4732,-0.51796 -0.23667,-0.0726 -0.5429,0.0165 -0.74903,0.14744 -0.20613,0.13091 -0.31192,0.30352 -0.3648,0.38979 -0.0529,0.0863 -0.0528,0.0862 -0.0723,0.55686 z"
       id="path997" />
    <path
       style="fill:#ffcc00;stroke:none;stroke-width:0.264583px;stroke-linecap:butt;stroke-linejoin:miter;stroke-opacity:1"
       d="m 41.255939,157.51858 c 0.02507,0.37599 0.07518,1.12769 0.09187,1.79028 0.01669,0.6626 -1.3e-5,1.23609 0.05713,1.63579 0.05715,0.3997 0.187949,0.6255 0.302125,0.79531 0.114177,0.16981 0.211666,0.28366 0.371779,0.33487 0.160113,0.0512 0.382831,0.0401 0.566432,-0.0796 0.183601,-0.11968 0.32837,-0.34797 0.406343,-0.64577 0.07797,-0.29781 0.08911,-0.66529 0.07799,-1.1163 -0.01112,-0.45101 -0.04453,-0.98554 -0.04177,-1.43659 0.0028,-0.45104 0.04174,-0.81853 0.100191,-1.09977 0.05845,-0.28124 0.136401,-0.47611 0.325812,-0.64047 0.189412,-0.16437 0.49007,-0.29799 0.718449,-0.35921 0.228379,-0.0612 0.384281,-0.0501 0.509399,-0.12521 0.125118,-0.0751 0.219775,-0.23661 0.286597,-0.41195 0.06682,-0.17534 0.105797,-0.36465 0.07253,-0.5233 -0.03327,-0.15865 -0.139065,-0.28672 -0.283795,-0.37869 -0.144731,-0.092 -0.328482,-0.14764 -0.654227,-0.2117 -0.325746,-0.0641 -0.79346,-0.13644 -1.29461,-0.17266 -0.501149,-0.0362 -1.035686,-0.0362 -1.503438,-0.003 -0.467752,0.0334 -0.868645,0.10021 -1.169416,0.21158 -0.30077,0.11136 -0.501217,0.26727 -0.609822,0.45394 -0.108605,0.18667 -0.125307,0.40382 -0.06391,0.57643 0.0614,0.17262 0.2006,0.30069 0.373233,0.38969 0.172633,0.089 0.378644,0.13911 0.595764,0.1502 0.217121,0.0111 0.445395,-0.0168 0.570586,0.0586 0.125191,0.0753 0.14746,0.25348 0.158577,0.34243 0.01112,0.0889 0.01112,0.0889 0.03618,0.46493 z"
       id="path1001"
       sodipodi:nodetypes="ccccccccccccccccccccccccccc" />
    <path
       style="fill:#ffcc00;stroke:none;stroke-width:0.264583px;stroke-linecap:butt;stroke-linejoin:miter;stroke-opacity:1"
       d="m 46.295068,156.50517 c -0.03063,0.68222 -0.09188,2.04641 -0.08906,2.93177 0.0028,0.88535 0.06963,1.29182 0.130053,1.60748 0.06042,0.31567 0.114422,0.54051 0.192452,0.71868 0.07803,0.17817 0.179938,0.30969 0.393467,0.3579 0.213529,0.0482 0.538662,0.0134 0.733406,-0.11452 0.194745,-0.12797 0.25937,-0.34933 0.302837,-0.61868 0.04347,-0.26934 0.06574,-0.58671 0.08523,-0.84842 0.01949,-0.2617 0.03619,-0.46772 0.103025,-0.62376 0.06683,-0.15603 0.183761,-0.26182 0.364847,-0.3175 0.181085,-0.0557 0.426085,-0.0612 0.651597,-0.0612 0.225512,0 0.431532,0.006 0.626448,0.0502 0.194916,0.0446 0.378649,0.12813 0.481513,0.32866 0.102864,0.20053 0.125136,0.5179 0.152994,0.77126 0.02786,0.25336 0.06127,0.44267 0.136482,0.66819 0.07522,0.22552 0.192143,0.48722 0.334211,0.63743 0.142068,0.15022 0.309112,0.18919 0.481652,0.17521 0.172541,-0.014 0.350704,-0.0808 0.484281,-0.15596 0.133578,-0.0751 0.222643,-0.15865 0.281093,-0.35063 0.05845,-0.19198 0.08629,-0.49265 0.105787,-1.02997 0.0195,-0.53732 0.03064,-1.31128 0.04456,-1.99617 0.01392,-0.68488 0.03063,-1.28066 0.03342,-1.74002 0.0028,-0.45936 -0.0083,-0.78231 -0.06943,-0.9689 -0.06109,-0.18659 -0.172478,-0.23672 -0.322808,-0.29798 -0.150331,-0.0613 -0.339651,-0.13364 -0.506844,-0.10865 -0.167194,0.025 -0.311958,0.14748 -0.426145,0.32296 -0.114187,0.17548 -0.197709,0.40377 -0.27566,0.65714 -0.07795,0.25337 -0.150335,0.53177 -0.253309,0.72655 -0.102974,0.19478 -0.236605,0.30614 -0.436958,0.37574 -0.200353,0.0696 -0.467617,0.0974 -0.726502,0.0947 -0.258884,-0.003 -0.509449,-0.0362 -0.707125,-0.11679 -0.197675,-0.0806 -0.342441,-0.20869 -0.431657,-0.41191 -0.08922,-0.20321 -0.122624,-0.48161 -0.169934,-0.74609 -0.04731,-0.26448 -0.108557,-0.51504 -0.222595,-0.69051 -0.114038,-0.17546 -0.281063,-0.27568 -0.470423,-0.31198 -0.189361,-0.0363 -0.400941,-0.008 -0.562503,0.05 -0.161562,0.0584 -0.272949,0.14756 -0.334247,0.21172 -0.0613,0.0642 -0.07241,0.10306 -0.07796,0.12247 -0.0055,0.0194 -0.0056,0.0194 -0.03618,0.70166 z"
       id="path1005"
       sodipodi:nodetypes="sccccccccccccccccccccccccccccccccccccss" />
    <path
       style="fill:#ffcc00;stroke:none;stroke-width:0.264583px;stroke-linecap:butt;stroke-linejoin:miter;stroke-opacity:1"
       d="m 53.753551,157.29026 c -0.02229,0.19779 -0.06683,0.59312 -0.07516,1.00241 -0.0083,0.40929 0.01951,0.83246 0.06685,1.33638 0.04734,0.50393 0.114152,1.08856 0.270177,1.50616 0.156025,0.4176 0.401018,0.66816 0.659962,0.87136 0.258944,0.20319 0.531774,0.35909 0.924316,0.45367 0.392542,0.0946 0.9048,0.12799 1.417057,0.13076 0.512257,0.003 1.024512,-0.0251 1.3975,-0.10303 0.372988,-0.078 0.606844,-0.20604 0.776598,-0.37579 0.169754,-0.16975 0.275549,-0.38134 0.256214,-0.56222 -0.01933,-0.18088 -0.164099,-0.33122 -0.339473,-0.47324 -0.175375,-0.14203 -0.38139,-0.27566 -0.643112,-0.34814 -0.261722,-0.0725 -0.579099,-0.0836 -0.980023,-0.0697 -0.400923,0.0139 -0.885336,0.0529 -1.199905,0.0252 -0.31457,-0.0277 -0.459345,-0.12239 -0.537429,-0.2142 -0.07808,-0.0918 -0.08922,-0.18092 -0.09758,-0.26445 -0.0084,-0.0835 -0.01393,-0.16148 0.03338,-0.26183 0.04731,-0.10035 0.147531,-0.22284 0.298044,-0.25622 0.150513,-0.0334 0.350958,0.0223 0.668308,0.0306 0.31735,0.008 0.751654,-0.0307 1.060632,-0.0836 0.308978,-0.0529 0.492741,-0.11973 0.654171,-0.19767 0.16143,-0.0779 0.300644,-0.16704 0.370211,-0.22812 0.06957,-0.0611 0.06957,-0.0946 0.06401,-0.16692 -0.0056,-0.0724 -0.01669,-0.18372 -0.06949,-0.29786 -0.0528,-0.11415 -0.147451,-0.23107 -0.303317,-0.33694 -0.155867,-0.10587 -0.373015,-0.20053 -0.659802,-0.25349 -0.286787,-0.053 -0.643138,-0.0641 -0.949367,-0.0975 -0.30623,-0.0334 -0.562362,-0.0891 -0.690582,-0.17805 -0.128221,-0.089 -0.128221,-0.21148 -0.08926,-0.32852 0.03896,-0.11704 0.116908,-0.22839 0.295211,-0.31754 0.178303,-0.0891 0.456692,-0.15596 0.782459,-0.20048 0.325767,-0.0445 0.698826,-0.0668 1.027349,-0.0807 0.328524,-0.0139 0.612499,-0.0195 0.821192,-0.0752 0.208692,-0.0557 0.342325,-0.16148 0.420245,-0.28386 0.07792,-0.12238 0.100194,-0.26158 0.07246,-0.39795 -0.02773,-0.13637 -0.105683,-0.27 -0.272663,-0.40093 -0.166979,-0.13093 -0.423107,-0.259 -0.734943,-0.3398 -0.311836,-0.0808 -0.679323,-0.11421 -1.077463,-0.11981 -0.398139,-0.006 -0.826877,0.0167 -1.236159,0.0668 -0.409283,0.0501 -0.799047,0.12805 -1.083105,0.23663 -0.284058,0.10859 -0.462234,0.24779 -0.626517,0.39815 -0.164283,0.15036 -0.314622,0.31183 -0.420438,0.49009 -0.105815,0.17826 -0.167063,0.37314 -0.197662,0.4705 -0.0306,0.0974 -0.03061,0.0973 -0.05289,0.29505 z"
       id="path1009"
       sodipodi:nodetypes="cccccccccccccccccccccccccccccccccccccccccccc" />
  </g>
</svg>
